<svg class="diagram-root" style="background: #f5f6f6" xmlns="http://www.w3.org/2000/svg" xmlns:xlink="http://www.w3.org/1999/xlink"><style>.diagram-root { font-family: "Helvetica Neue", sans-serif; font-size: 12px; } .t { overflow: visible; } .t-bg { y: 40; fill: #fff;   } .th { fill: #005aa0;   } .tht { fill: #fff; font-size: 14px;  } .tf { fill: #323c46; overflow: visible; } .tf.pk { fill: #005aa0; font-weight: bold; } .tf.fk { font-weight: bold; } .ty { fill: #adb1b5; font-weight: normal; text-anchor: end; } .r { fill: transparent; stroke: #c3c3c3; stroke-width: 1; } .l { stroke: 1; } .i { fill: #c2c7ce; stroke: #c2c7ce; } .i.ix { fill: #afb3b6; stroke: #000; } .fa { fill: transparent; overflow: visible; } .fa .bg.hover { fill: #f7f7f7; } .c { cy: 12; r: 4; stroke: #d2d2dc; fill: #d2d2dc; } .hr { fill: transparent; stroke: #323c46; stroke-opacity: 0.035; stroke-width: 13; } .dc { stroke: #fa5a3c; fill: #fa5a3c; } .x { stroke: white; stroke-width: 1; } .hl .th { fill: #1b9bff; } .hl .tht {  } .fhl .bg { fill: #e7f4ff; } .fhls .bg {  } .r.hl { stroke: #1b9bff; } .dim { opacity: 0.25; }</style><g class="drawing-wrapper" transform="translate(-157, -70) scale(1,1)"><g class="rs"><path d="M 970 182 m -1, 0 a 1,1 0 1,0 2,0 a 1,1 0 1,0 -2,0 M 970 182 m -0.5, 0 a 0.5,0.5 0 1,0 1,0 a 0.5,0.5 0 1,0 -1,0  M970 182 L970 182 958 182 M 970 188 m -1, 0 a 1,1 0 1,0 2,0 a 1,1 0 1,0 -2,0 M 970 188 m -0.5, 0 a 0.5,0.5 0 1,0 1,0 a 0.5,0.5 0 1,0 -1,0  M970 188 L970 188 963 182 970 176 M 970 176 m -1, 0 a 1,1 0 1,0 2,0 a 1,1 0 1,0 -2,0 M 970 176 m -0.5, 0 a 0.5,0.5 0 1,0 1,0 a 0.5,0.5 0 1,0 -1,0  M958 182 Q 919 182, 880 183.5 T 802 185 M 790 185 m -1, 0 a 1,1 0 1,0 2,0 a 1,1 0 1,0 -2,0 M 790 185 m -0.5, 0 a 0.5,0.5 0 1,0 1,0 a 0.5,0.5 0 1,0 -1,0  M790 185 L790 185 802 185 M796 191 L796 191 796 179" id="h1372060549" class="r"></path><path d="M 356 184 m -1, 0 a 1,1 0 1,0 2,0 a 1,1 0 1,0 -2,0 M 356 184 m -0.5, 0 a 0.5,0.5 0 1,0 1,0 a 0.5,0.5 0 1,0 -1,0  M356 184 L356 184 368 184 M 356 190 m -1, 0 a 1,1 0 1,0 2,0 a 1,1 0 1,0 -2,0 M 356 190 m -0.5, 0 a 0.5,0.5 0 1,0 1,0 a 0.5,0.5 0 1,0 -1,0  M356 190 L356 190 363 184 356 178 M 356 178 m -1, 0 a 1,1 0 1,0 2,0 a 1,1 0 1,0 -2,0 M 356 178 m -0.5, 0 a 0.5,0.5 0 1,0 1,0 a 0.5,0.5 0 1,0 -1,0  M368 184 Q 408 184, 448 184.5 T 528 185 M 540 185 m -1, 0 a 1,1 0 1,0 2,0 a 1,1 0 1,0 -2,0 M 540 185 m -0.5, 0 a 0.5,0.5 0 1,0 1,0 a 0.5,0.5 0 1,0 -1,0  M540 185 L540 185 528 185 M534 191 L534 191 534 179" id="h360873356" class="r"></path></g><g class="hrs"></g><g class="ts"><svg width="177" height="450" x="179" y="102" id="h1404381977" class="t"><rect height="40" width="177" class="th"></rect><text x="13" y="25" class="tht">measurements</text><rect height="410" width="177" class="t-bg" y="40"></rect><text x="13" y="61" class="tf pk">_id<tspan x="164" class="ty">int</tspan></text><path d="M7,14A2,2 0 0,1 5,12A2,2 0 0,1 7,10A2,2 0 0,1 9,12A2,2 0 0,1 7,14M12.65,10C11.83,7.67 9.61,6 7, 6A6, 6 0 0, 0 1, 12A6, 6 0 0, 0 7, 18C9.61, 18 11.83, 16.33 12.65, 14H17V18H21V14H23V10H12.65Z" class="i pk" transform="translate(131, 48) scale(0.65)"></path><text x="13" y="86" class="tf fk">site_code<tspan x="164" class="ty">text</tspan></text><text x="13" y="111" class="tf">msmt_date<tspan x="164" class="ty">timestamp</tspan></text><text x="13" y="136" class="tf">wlm_rpe<tspan x="164" class="ty">numeric</tspan></text><text x="13" y="161" class="tf">wlm_gse<tspan x="164" class="ty">numeric</tspan></text><text x="13" y="186" class="tf">gwe<tspan x="164" class="ty">numeric</tspan></text><text x="13" y="211" class="tf">gse_gwe<tspan x="164" class="ty">numeric</tspan></text><text x="13" y="236" class="tf">wlm_qa_desc<tspan x="164" class="ty">text</tspan></text><text x="13" y="261" class="tf">wlm_qa_detail<tspan x="164" class="ty">text</tspan></text><text x="13" y="286" class="tf">wlm_mthd_desc<tspan x="164" class="ty">text</tspan></text><text x="13" y="311" class="tf">wlm_acc_desc<tspan x="164" class="ty">text</tspan></text><text x="13" y="336" class="tf">wlm_org_name<tspan x="164" class="ty">text</tspan></text><text x="13" y="361" class="tf">coop_org_name<tspan x="164" class="ty">text</tspan></text><text x="13" y="386" class="tf">monitoring_program<tspan x="164" class="ty">text</tspan></text><text x="13" y="411" class="tf">source<tspan x="164" class="ty">text</tspan></text><text x="13" y="436" class="tf">msmt_cmt<tspan x="164" class="ty">text</tspan></text></svg><svg width="250" height="550" x="540" y="103" id="h3409972826" class="t"><rect height="40" width="250" class="th"></rect><text x="13" y="25" class="tht">Stations</text><rect height="510" width="250" class="t-bg" y="40"></rect><text x="13" y="61" class="tf pk">_id<tspan x="237" class="ty">int</tspan></text><path d="M7,14A2,2 0 0,1 5,12A2,2 0 0,1 7,10A2,2 0 0,1 9,12A2,2 0 0,1 7,14M12.65,10C11.83,7.67 9.61,6 7, 6A6, 6 0 0, 0 1, 12A6, 6 0 0, 0 7, 18C9.61, 18 11.83, 16.33 12.65, 14H17V18H21V14H23V10H12.65Z" class="i pk" transform="translate(204, 48) scale(0.65)"></path><text x="13" y="86" class="tf pk">site_code<tspan x="237" class="ty">text</tspan></text><path d="M7,14A2,2 0 0,1 5,12A2,2 0 0,1 7,10A2,2 0 0,1 9,12A2,2 0 0,1 7,14M12.65,10C11.83,7.67 9.61,6 7, 6A6, 6 0 0, 0 1, 12A6, 6 0 0, 0 7, 18C9.61, 18 11.83, 16.33 12.65, 14H17V18H21V14H23V10H12.65Z" class="i pk" transform="translate(199, 73) scale(0.65)"></path><text x="13" y="111" class="tf pk">stn_id<tspan x="237" class="ty">text</tspan></text><path d="M7,14A2,2 0 0,1 5,12A2,2 0 0,1 7,10A2,2 0 0,1 9,12A2,2 0 0,1 7,14M12.65,10C11.83,7.67 9.61,6 7, 6A6, 6 0 0, 0 1, 12A6, 6 0 0, 0 7, 18C9.61, 18 11.83, 16.33 12.65, 14H17V18H21V14H23V10H12.65Z" class="i pk" transform="translate(199, 98) scale(0.65)"></path><text x="13" y="136" class="tf">swn<tspan x="237" class="ty">text</tspan></text><text x="13" y="161" class="tf">well_name<tspan x="237" class="ty">text</tspan></text><text x="13" y="186" class="tf">continuous_data_station_number<tspan x="237" class="ty">text</tspan></text><text x="13" y="211" class="tf">latitude<tspan x="237" class="ty">numeric</tspan></text><text x="13" y="236" class="tf">longitude<tspan x="237" class="ty">numeric</tspan></text><text x="13" y="261" class="tf">gse<tspan x="237" class="ty">numeric</tspan></text><text x="13" y="286" class="tf">rpe<tspan x="237" class="ty">numeric</tspan></text><text x="13" y="311" class="tf">gse_method<tspan x="237" class="ty">text</tspan></text><text x="13" y="336" class="tf">gse_acc<tspan x="237" class="ty">text</tspan></text><text x="13" y="361" class="tf">basin_code<tspan x="237" class="ty">text</tspan></text><text x="13" y="386" class="tf">basin_name<tspan x="237" class="ty">text</tspan></text><text x="13" y="411" class="tf">county_name<tspan x="237" class="ty">text</tspan></text><text x="13" y="436" class="tf">well_depth<tspan x="237" class="ty">numeric</tspan></text><text x="13" y="461" class="tf">well_use<tspan x="237" class="ty">text</tspan></text><text x="13" y="486" class="tf">well_type<tspan x="237" class="ty">text</tspan></text><text x="13" y="511" class="tf">wcr_no<tspan x="237" class="ty">text</tspan></text><text x="13" y="536" class="tf">monitoring_program<tspan x="237" class="ty">text</tspan></text></svg><svg width="149" height="150" x="970" y="100" id="h1441206249" class="t"><rect height="40" width="149" class="th"></rect><text x="13" y="25" class="tht">perforations</text><rect height="110" width="149" class="t-bg" y="40"></rect><text x="13" y="61" class="tf pk">_id<tspan x="136" class="ty">int</tspan></text><path d="M7,14A2,2 0 0,1 5,12A2,2 0 0,1 7,10A2,2 0 0,1 9,12A2,2 0 0,1 7,14M12.65,10C11.83,7.67 9.61,6 7, 6A6, 6 0 0, 0 1, 12A6, 6 0 0, 0 7, 18C9.61, 18 11.83, 16.33 12.65, 14H17V18H21V14H23V10H12.65Z" class="i pk" transform="translate(103, 48) scale(0.65)"></path><text x="13" y="86" class="tf fk">site_code<tspan x="136" class="ty">text</tspan></text><text x="13" y="111" class="tf">top_prf_int<tspan x="136" class="ty">numeric</tspan></text><text x="13" y="136" class="tf">bot_prf_int<tspan x="136" class="ty">numeric</tspan></text></svg></g></g><text class="qdbd-link" x="10" y="20">www.quickdatabasediagrams.com</text></svg>